# Blender v2.78 (sub 0) OBJ File: 'Landscape.blend'
# www.blender.org
mtllib TreeTrunk.mtl
o Icosphere.004
v 0.018635 0.292614 0.011428
v 0.014623 -0.005361 0.008111
v 0.019519 0.292618 0.009992
v 0.015507 -0.005356 0.006674
v 0.020070 0.292628 0.008376
v 0.016058 -0.005346 0.005059
v 0.020267 0.292645 0.006644
v 0.016255 -0.005329 0.003327
v 0.020102 0.292667 0.004862
v 0.016091 -0.005307 0.001544
v 0.019582 0.292694 0.003098
v 0.015571 -0.005281 -0.000220
v 0.018727 0.292724 0.001419
v 0.014716 -0.005250 -0.001898
v 0.017570 0.292756 -0.000108
v 0.013558 -0.005218 -0.003425
v 0.016154 0.292790 -0.001427
v 0.012143 -0.005184 -0.004744
v 0.014535 0.292824 -0.002485
v 0.010523 -0.005150 -0.005802
v 0.012775 0.292856 -0.003243
v 0.008763 -0.005118 -0.006560
v 0.010941 0.292885 -0.003671
v 0.006929 -0.005089 -0.006989
v 0.009103 0.292911 -0.003754
v 0.005092 -0.005063 -0.007071
v 0.007333 0.292932 -0.003486
v 0.003322 -0.005042 -0.006804
v 0.005699 0.292947 -0.002880
v 0.001687 -0.005027 -0.006197
v 0.004262 0.292956 -0.001958
v 0.000251 -0.005018 -0.005275
v 0.003080 0.292959 -0.000756
v -0.000932 -0.005015 -0.004073
v 0.002196 0.292955 0.000681
v -0.001816 -0.005020 -0.002637
v 0.001644 0.292944 0.002296
v -0.002367 -0.005030 -0.001021
v 0.001447 0.292927 0.004028
v -0.002564 -0.005047 0.000711
v 0.001612 0.292905 0.005811
v -0.002400 -0.005069 0.002493
v 0.005265 0.298464 0.005163
v 0.001254 0.000490 0.001845
v 0.002987 0.292848 0.009253
v -0.001025 -0.005126 0.005936
v 0.004144 0.292816 0.010780
v 0.000133 -0.005158 0.007463
v 0.005560 0.292782 0.012099
v 0.001548 -0.005192 0.008782
v 0.007179 0.292749 0.013157
v 0.003167 -0.005226 0.009840
v 0.008939 0.292716 0.013915
v 0.004928 -0.005258 0.010598
v 0.010774 0.292687 0.014344
v 0.006762 -0.005287 0.011026
v 0.012611 0.292661 0.014426
v 0.008599 -0.005313 0.011108
v 0.014381 0.292640 0.014159
v 0.010369 -0.005334 0.010841
v 0.016015 0.292625 0.013552
v 0.012004 -0.005349 0.010235
v 0.017452 0.292616 0.012630
v 0.013440 -0.005358 0.009313
v 0.017290 0.192732 0.010316
v 0.018174 0.192736 0.008880
v 0.018725 0.192746 0.007264
v 0.018922 0.192763 0.005532
v 0.018758 0.192785 0.003750
v 0.018238 0.192812 0.001986
v 0.017383 0.192842 0.000307
v 0.016225 0.192874 -0.001220
v 0.014810 0.192908 -0.002539
v 0.013190 0.192942 -0.003597
v 0.011430 0.192974 -0.004355
v 0.009596 0.193003 -0.004783
v 0.007759 0.193029 -0.004865
v 0.005989 0.193050 -0.004598
v 0.004354 0.193065 -0.003992
v 0.002918 0.193074 -0.003070
v 0.001735 0.193077 -0.001868
v 0.000851 0.193073 -0.000431
v 0.000300 0.193062 0.001184
v 0.000103 0.193045 0.002916
v 0.000267 0.193023 0.004699
v 0.003921 0.198582 0.004051
v 0.001642 0.192967 0.008141
v 0.002800 0.192934 0.009669
v 0.004215 0.192900 0.010987
v 0.005834 0.192867 0.012045
v 0.007595 0.192834 0.012803
v 0.009429 0.192805 0.013232
v 0.011266 0.192779 0.013314
v 0.013036 0.192759 0.013047
v 0.014671 0.192743 0.012440
v 0.016107 0.192734 0.011518
v 0.017129 0.180821 0.010183
v 0.018013 0.180825 0.008747
v 0.018565 0.180836 0.007132
v 0.018762 0.180852 0.005400
v 0.018597 0.180874 0.003617
v 0.018077 0.180901 0.001853
v 0.017222 0.180931 0.000175
v 0.016065 0.180964 -0.001353
v 0.014649 0.180998 -0.002671
v 0.013030 0.181031 -0.003730
v 0.011270 0.181063 -0.004488
v 0.009436 0.181093 -0.004916
v 0.007598 0.181118 -0.004998
v 0.005828 0.181139 -0.004731
v 0.004194 0.181154 -0.004125
v 0.002757 0.181164 -0.003203
v 0.001575 0.181166 -0.002000
v 0.000691 0.181162 -0.000564
v 0.000139 0.181151 0.001051
v -0.000058 0.181135 0.002784
v 0.000107 0.181113 0.004566
v 0.003760 0.186671 0.003918
v 0.001482 0.181056 0.008008
v 0.002639 0.181023 0.009536
v 0.004055 0.180990 0.010854
v 0.005674 0.180956 0.011913
v 0.007434 0.180924 0.012671
v 0.009268 0.180894 0.013099
v 0.011106 0.180869 0.013181
v 0.012876 0.180848 0.012914
v 0.014510 0.180833 0.012308
v 0.015947 0.180824 0.011386
v 0.038468 0.206102 0.026266
v 0.038498 0.208301 0.026290
v 0.038335 0.208300 0.026555
v 0.038305 0.206101 0.026531
v -0.018797 0.198227 -0.009195
v -0.018769 0.200313 -0.009172
v -0.018894 0.198225 -0.008912
v -0.018866 0.200311 -0.008889
vt 1.5007 -0.5202
vt -0.5242 1.5046
vt -0.5242 -0.5202
vt 1.5007 -0.5202
vt -0.5242 1.5046
vt -0.5242 -0.5202
vt -0.5242 -0.5202
vt 1.5007 1.5046
vt -0.5242 1.5046
vt 1.5007 -0.5202
vt -0.5242 1.5046
vt -0.5242 -0.5202
vt 1.5007 -0.5202
vt -0.5242 1.5046
vt -0.5242 -0.5202
vt 1.5007 -0.5202
vt -0.5242 1.5046
vt -0.5242 -0.5202
vt -0.5242 -0.5202
vt 1.5007 1.5046
vt -0.5242 1.5046
vt -0.5242 -0.5202
vt 1.5007 1.5046
vt -0.5242 1.5046
vt 1.5007 -0.5202
vt -0.5242 1.5046
vt -0.5242 -0.5202
vt 1.5007 -0.5202
vt -0.5242 1.5046
vt -0.5242 -0.5202
vt -0.5242 -0.5202
vt 1.5007 1.5046
vt -0.5242 1.5046
vt 1.5007 -0.5202
vt -0.5242 1.5046
vt -0.5242 -0.5202
vt 1.5007 -0.5202
vt -0.5242 1.5046
vt -0.5242 -0.5202
vt -0.5242 -0.5202
vt 1.5007 1.5046
vt -0.5242 1.5046
vt 1.5007 -0.5202
vt -0.5242 1.5046
vt -0.5242 -0.5202
vt 1.5007 -0.5202
vt -0.5242 1.5046
vt -0.5242 -0.5202
vt 1.5007 -0.5202
vt -0.5242 1.5046
vt -0.5242 -0.5202
vt 1.5007 -0.5202
vt -0.5242 1.5046
vt -0.5242 -0.5202
vt -0.5242 -0.5202
vt 1.5007 1.5046
vt -0.5242 1.5046
vt 1.5007 -0.5202
vt -0.5242 1.5046
vt -0.5242 -0.5202
vt -0.5242 -0.5202
vt 1.5007 1.5046
vt -0.5242 1.5046
vt 1.5007 -0.5202
vt -0.5242 1.5046
vt -0.5242 -0.5202
vt 0.7191 0.2614
vt 0.2575 0.7230
vt 0.2575 0.2614
vt 1.5007 -0.5202
vt -0.5242 1.5046
vt -0.5242 -0.5202
vt 1.5007 -0.5202
vt -0.5242 1.5046
vt -0.5242 -0.5202
vt 1.5007 -0.5202
vt -0.5242 1.5046
vt -0.5242 -0.5202
vt 1.5007 -0.5202
vt -0.5242 1.5046
vt -0.5242 -0.5202
vt 1.5007 -0.5202
vt -0.5242 1.5046
vt -0.5242 -0.5202
vt 1.5007 -0.5202
vt -0.5242 1.5046
vt -0.5242 -0.5202
vt 1.5007 -0.5202
vt -0.5242 1.5046
vt -0.5242 -0.5202
vt 0.2262 0.7542
vt 0.7964 0.2863
vt 0.7503 0.2301
vt -0.5242 -0.5202
vt 1.5007 1.5046
vt -0.5242 1.5046
vt -0.5242 -0.5202
vt 1.5007 1.5046
vt -0.5242 1.5046
vt 0.4787 0.4831
vt 0.4998 0.5042
vt 0.4749 0.4844
vt 0.8589 0.8628
vt 0.1177 0.1216
vt 0.8589 0.1216
vt 0.1177 0.8628
vt 0.8589 0.1216
vt 0.8589 0.8628
vt 0.1177 0.8628
vt 0.8589 0.1216
vt 0.8589 0.8628
vt 0.1177 0.8628
vt 0.8589 0.1216
vt 0.8589 0.8628
vt 0.1177 0.8628
vt 0.8589 0.1216
vt 0.8589 0.8628
vt 0.8589 0.8628
vt 0.1177 0.1216
vt 0.8589 0.1216
vt 0.8589 0.8628
vt 0.1177 0.1216
vt 0.8589 0.1216
vt 0.8589 0.8628
vt 0.1177 0.1216
vt 0.8589 0.1216
vt 0.1177 0.8628
vt 0.8589 0.1216
vt 0.8589 0.8628
vt 0.8589 0.8628
vt 0.1177 0.1216
vt 0.8589 0.1216
vt 0.1177 0.8628
vt 0.8589 0.1216
vt 0.8589 0.8628
vt 0.8589 0.8628
vt 0.1177 0.1216
vt 0.8589 0.1216
vt 0.1177 0.8628
vt 0.8589 0.1216
vt 0.8589 0.8628
vt 0.1177 0.8628
vt 0.8589 0.1216
vt 0.8589 0.8628
vt 0.8589 0.8628
vt 0.1177 0.1216
vt 0.8589 0.1216
vt 0.1177 0.8628
vt 0.8589 0.1216
vt 0.8589 0.8628
vt 0.8589 0.8628
vt 0.1177 0.1216
vt 0.8589 0.1216
vt 0.1177 0.8628
vt 0.8589 0.1216
vt 0.8589 0.8628
vt 0.1177 0.8628
vt 0.8589 0.1216
vt 0.8589 0.8628
vt 0.8589 0.8628
vt 0.1177 0.1216
vt 0.8589 0.1216
vt 0.1177 0.8628
vt 0.8589 0.1216
vt 0.8589 0.8628
vt 0.8589 0.8628
vt 0.1177 0.1216
vt 0.8589 0.1216
vt 0.8589 0.8628
vt 0.1177 0.1216
vt 0.8589 0.1216
vt 0.1177 0.8628
vt 0.8589 0.1216
vt 0.8589 0.8628
vt 0.8589 0.8628
vt 0.1177 0.1216
vt 0.8589 0.1216
vt 0.8589 0.8628
vt 0.1177 0.1216
vt 0.8589 0.1216
vt 0.1177 0.8628
vt 0.8589 0.1216
vt 0.8589 0.8628
vt 0.8589 0.8628
vt 0.1177 0.1216
vt 0.8589 0.1216
vt 0.1177 0.8628
vt 0.8589 0.1216
vt 0.8589 0.8628
vt 0.8589 0.8628
vt 0.1177 0.1216
vt 0.8589 0.1216
vt 0.8589 0.8628
vt 0.1177 0.1216
vt 0.8589 0.1216
vt 0.1177 0.8628
vt 0.8589 0.1216
vt 0.8589 0.8628
vt 13.6632 -12.6827
vt -12.6866 13.6671
vt -12.6866 -12.6827
vt 0.1177 0.8628
vt 0.8589 0.1216
vt 0.8589 0.8628
vt 0.1177 0.8628
vt 0.8589 0.1216
vt 0.8589 0.8628
vt 0.1177 0.8628
vt 0.8589 0.1216
vt 0.8589 0.8628
vt 0.8589 0.8628
vt 0.1177 0.1216
vt 0.8589 0.1216
vt 0.1177 0.8628
vt 0.8589 0.1216
vt 0.8589 0.8628
vt 0.8589 0.8628
vt 0.1177 0.1216
vt 0.8589 0.1216
vt 0.1177 0.8628
vt 0.8589 0.1216
vt 0.8589 0.8628
vt 0.1177 0.8628
vt 0.8589 0.1216
vt 0.8589 0.8628
vt 0.1177 0.8628
vt 0.8589 0.1216
vt 0.8589 0.8628
vt 0.1177 0.8628
vt 0.8589 0.1216
vt 0.8589 0.8628
vt 0.8589 0.8628
vt 0.1177 0.1216
vt 0.8589 0.1216
vt 0.1177 0.8628
vt 0.8589 0.1216
vt 0.8589 0.8628
vt 0.1177 0.8628
vt 0.8589 0.1216
vt 0.8589 0.8628
vt 1.5161 -0.5357
vt -0.5396 1.5200
vt -0.5396 -0.5357
vt 0.1177 0.8628
vt 0.8589 0.1216
vt 0.8589 0.8628
vt 0.8589 0.8628
vt 0.1177 0.1216
vt 0.8589 0.1216
vt 0.1177 0.8628
vt 0.8589 0.1216
vt 0.8589 0.8628
vt 0.8589 0.8628
vt 0.1177 0.1216
vt 0.8589 0.1216
vt 0.8589 0.8628
vt 0.1177 0.1216
vt 0.8589 0.1216
vt 0.1177 0.8628
vt 0.8589 0.1216
vt 0.8589 0.8628
vt 0.1177 0.8628
vt 0.8589 0.1216
vt 0.8589 0.8628
vt 0.8589 0.8628
vt 0.1177 0.1216
vt 0.8589 0.1216
vt 0.1177 0.8628
vt 0.8589 0.1216
vt 0.8589 0.8628
vt 0.8589 0.8628
vt 0.1177 0.1216
vt 0.8589 0.1216
vt 0.8589 0.8628
vt 0.1177 0.1216
vt 0.8589 0.1216
vt 0.1177 0.8628
vt 0.8589 0.1216
vt 0.8589 0.8628
vt 0.1177 0.8628
vt 0.8589 0.1216
vt 0.8589 0.8628
vt 0.8589 0.8628
vt 0.1177 0.1216
vt 0.8589 0.1216
vt 0.8589 0.8628
vt 0.1177 0.1216
vt 0.8589 0.1216
vt 0.1177 0.8628
vt 0.8589 0.1216
vt 0.8589 0.8628
vt 0.6582 0.6621
vt 0.3184 0.3223
vt 0.6582 0.3223
vt 13.6632 -12.6827
vt -12.6866 13.6671
vt -12.6866 -12.6827
vt 0.3184 0.6621
vt 0.6582 0.3223
vt 0.6582 0.6621
vt 13.6632 -12.6827
vt -12.6866 -12.6827
vt 0.6582 0.6621
vt 0.3184 0.3223
vt 0.6582 0.3223
vt 13.6632 -12.6827
vt -12.6866 13.6671
vt -12.6866 -12.6827
vt 0.0726 0.0765
vt 0.9040 0.9079
vt 0.0726 0.9079
vt 0.5821 0.3984
vt 0.3945 0.5860
vt 0.3945 0.3984
vt -0.5396 -0.5357
vt 1.5161 1.5200
vt -0.5396 1.5200
vt 1.5007 1.5046
vt 1.5007 1.5046
vt 1.5007 -0.5202
vt 1.5007 1.5046
vt 1.5007 1.5046
vt 1.5007 1.5046
vt 1.5007 -0.5202
vt 1.5007 -0.5202
vt 1.5007 1.5046
vt 1.5007 1.5046
vt 1.5007 -0.5202
vt 1.5007 1.5046
vt 1.5007 1.5046
vt 1.5007 -0.5202
vt 1.5007 1.5046
vt 1.5007 1.5046
vt 1.5007 1.5046
vt 1.5007 1.5046
vt 1.5007 -0.5202
vt 1.5007 1.5046
vt 1.5007 -0.5202
vt 1.5007 1.5046
vt 0.7191 0.7230
vt 1.5007 1.5046
vt 1.5007 1.5046
vt 1.5007 1.5046
vt 1.5007 1.5046
vt 1.5007 1.5046
vt 1.5007 1.5046
vt 1.5007 1.5046
vt 0.5606 0.1287
vt 0.4883 0.1216
vt 0.4160 0.1287
vt 0.3465 0.1498
vt 0.2824 0.1840
vt 0.2262 0.2301
vt 0.1801 0.2863
vt 0.1459 0.3504
vt 0.1248 0.4199
vt 0.1177 0.4922
vt 0.1248 0.5645
vt 0.1459 0.6340
vt 0.2824 0.8003
vt 0.3465 0.8346
vt 0.1801 0.6981
vt 0.6301 0.1498
vt 0.6942 0.1840
vt 0.8307 0.3504
vt 0.8589 0.4922
vt 0.8518 0.4199
vt 0.8307 0.6340
vt 0.8518 0.5645
vt 0.7503 0.7542
vt 0.7964 0.6981
vt 0.6301 0.8346
vt 0.6942 0.8003
vt 0.4883 0.8628
vt 0.5606 0.8557
vt 0.4160 0.8557
vt 1.5007 -0.5202
vt 1.5007 -0.5202
vt 0.4643 0.5043
vt 0.4636 0.5010
vt 0.4637 0.4977
vt 0.4646 0.4945
vt 0.4662 0.4914
vt 0.4685 0.4886
vt 0.4715 0.4862
vt 0.4826 0.4822
vt 0.4868 0.4823
vt 0.4908 0.4819
vt 0.4947 0.4822
vt 0.4984 0.4830
vt 0.5017 0.4844
vt 0.5047 0.4862
vt 0.5071 0.4885
vt 0.5091 0.4912
vt 0.5105 0.4942
vt 0.5114 0.4974
vt 0.5118 0.5009
vt 0.5118 0.5045
vt 0.4937 0.5159
vt 0.4898 0.5152
vt 0.4858 0.5159
vt 0.4817 0.5159
vt 0.4778 0.5153
vt 0.4740 0.5141
vt 0.4707 0.5123
vt 0.4679 0.5100
vt 0.4657 0.5073
vt 0.1177 0.8628
vt 0.1177 0.1216
vt 0.1177 0.1216
vt 0.1177 0.1216
vt 0.1177 0.1216
vt 0.1177 0.8628
vt 0.1177 0.8628
vt 0.1177 0.8628
vt 0.1177 0.1216
vt 0.1177 0.8628
vt 0.1177 0.1216
vt 0.1177 0.8628
vt 0.1177 0.1216
vt 0.1177 0.1216
vt 0.1177 0.8628
vt 0.1177 0.1216
vt 0.1177 0.8628
vt 0.1177 0.1216
vt 0.1177 0.1216
vt 0.1177 0.8628
vt 0.1177 0.1216
vt 0.1177 0.8628
vt 0.1177 0.8628
vt 0.1177 0.1216
vt 0.1177 0.8628
vt 0.1177 0.8628
vt 0.1177 0.1216
vt 0.1177 0.8628
vt 0.1177 0.1216
vt 0.1177 0.8628
vt 0.1177 0.8628
vt 0.1177 0.1216
vt 13.6632 13.6671
vt 0.1177 0.1216
vt 0.1177 0.1216
vt 0.1177 0.1216
vt 0.1177 0.8628
vt 0.1177 0.1216
vt 0.1177 0.8628
vt 0.1177 0.1216
vt 0.1177 0.1216
vt 0.1177 0.1216
vt 0.1177 0.1216
vt 0.1177 0.8628
vt 0.1177 0.1216
vt 0.1177 0.1216
vt 1.5161 1.5200
vt 0.1177 0.1216
vt 0.1177 0.8628
vt 0.1177 0.1216
vt 0.1177 0.8628
vt 0.1177 0.8628
vt 0.1177 0.1216
vt 0.1177 0.1216
vt 0.1177 0.8628
vt 0.1177 0.1216
vt 0.1177 0.8628
vt 0.1177 0.8628
vt 0.1177 0.1216
vt 0.1177 0.1216
vt 0.1177 0.8628
vt 0.1177 0.8628
vt 0.1177 0.1216
vt 0.3184 0.6621
vt 13.6632 13.6671
vt 0.3184 0.3223
vt 13.6632 13.6671
vt 0.3184 0.6621
vt 13.6632 13.6671
vt 0.9040 0.0765
vt 0.5821 0.5860
vt 1.5161 -0.5357
vn 0.5660 -0.6953 0.4429
vn 0.9386 -0.1874 0.2895
vn 0.6749 -0.2121 0.7067
vn 0.6516 -0.6952 0.3036
vn 0.9756 -0.0156 0.2191
vn 0.5943 -0.8042 -0.0040
vn 0.9998 -0.0136 0.0105
vn 0.9820 -0.0111 -0.1883
vn 0.5781 -0.8063 -0.1247
vn 0.9290 -0.0084 -0.3700
vn 0.5393 -0.8095 -0.2322
vn 0.8473 -0.0055 -0.5311
vn 0.4136 -0.8177 -0.4003
vn 0.7420 -0.0025 -0.6704
vn 0.3340 -0.8225 -0.4603
vn 0.6166 0.0005 -0.7872
vn 0.4731 0.0034 -0.8810
vn 0.2460 -0.8278 -0.5042
vn 0.3127 0.0063 -0.9498
vn 0.0512 -0.8402 -0.5398
vn 0.1367 0.0092 -0.9905
vn -0.0524 0.0118 -0.9985
vn -0.0513 -0.8480 -0.5275
vn -0.2496 0.0141 -0.9682
vn -0.2435 -0.8683 -0.4320
vn -0.4464 0.0160 -0.8947
vn -0.6303 0.0171 -0.7761
vn -0.3171 -0.8815 -0.3498
vn -0.7871 0.0175 -0.6165
vn -0.3642 -0.8962 -0.2532
vn -0.8029 -0.2018 -0.5609
vn -0.3820 -0.9110 -0.1552
vn -0.9825 -0.1768 -0.0584
vn -0.3593 -0.9332 -0.0009
vn -0.9998 0.0136 -0.0105
vn -0.5983 -0.0009 0.8012
vn -0.2280 -0.9014 0.3681
vn -0.8024 0.0042 0.5968
vn -0.9967 0.0125 0.0803
vn -0.5309 -0.8219 -0.2063
vn -0.7420 0.0025 0.6704
vn -0.3152 -0.9212 0.2280
vn -0.6166 -0.0005 0.7872
vn -0.2896 -0.9084 0.3015
vn -0.4731 -0.0034 0.8810
vn -0.2464 -0.8934 0.3755
vn -0.3127 -0.0063 0.9498
vn -0.1833 -0.8774 0.4434
vn -0.1367 -0.0092 0.9905
vn -0.0999 -0.8614 0.4981
vn 0.0524 -0.0118 0.9985
vn 0.0020 -0.8463 0.5326
vn 0.2496 -0.0141 0.9682
vn 0.1181 -0.8330 0.5405
vn 0.4464 -0.0160 0.8947
vn 0.4830 -0.8133 -0.3243
vn 0.4512 -0.6953 0.5594
vn 0.6303 -0.0171 0.7761
vn 0.6373 0.5311 -0.5583
vn -0.3423 0.9383 0.0486
vn 0.7214 0.5364 -0.4379
vn 0.4696 0.6703 0.5746
vn 0.3300 0.2844 0.9001
vn 0.5843 0.6698 0.4581
vn 0.4154 0.5414 0.7309
vn 0.2286 0.4995 0.8355
vn 0.0610 0.4806 0.8748
vn -0.1050 0.4572 0.8831
vn -0.2655 0.4297 0.8630
vn -0.4181 0.3990 0.8161
vn -0.5601 0.3671 0.7426
vn -0.6883 0.3367 0.6424
vn -0.9580 0.2458 0.1475
vn -0.6240 0.2216 0.7494
vn -0.9540 0.2994 -0.0109
vn -0.9476 0.2647 0.1787
vn -0.9233 0.3200 -0.2125
vn -0.8445 0.3485 -0.4067
vn -0.7219 0.3799 -0.5783
vn -0.5660 0.4102 -0.7150
vn -0.3907 0.4370 -0.8101
vn -0.2096 0.4595 -0.8631
vn -0.0331 0.4780 -0.8777
vn 0.1320 0.4931 -0.8599
vn 0.2825 0.5056 -0.8152
vn 0.4171 0.5159 -0.7482
vn 0.5355 0.5243 -0.6620
vn 0.7858 0.5402 -0.3011
vn 0.8268 0.5424 -0.1490
vn 0.8397 0.5428 0.0159
vn 0.8036 0.5558 0.2127
vn 0.6699 0.6704 0.3188
vn -0.5820 0.3337 -0.7415
vn -0.6476 0.6858 0.3321
vn 0.9744 0.2229 -0.0286
vn 0.2245 -0.3184 0.9210
vn 0.0401 0.7082 0.7048
vn 0.6457 0.7348 -0.2075
vn 0.9478 -0.3071 -0.0861
vn -0.4301 -0.3331 -0.8390
vn -0.2449 0.6711 -0.6997
vn -0.8995 -0.3325 0.2835
vn 0.6057 -0.7904 0.0918
vn 0.1512 -0.8336 -0.5312
vn -0.1520 -0.8572 -0.4920
vn -0.3761 -0.9240 -0.0688
vn -0.1913 -0.8015 0.5665
vn 0.2096 -0.7984 0.5645
usemtl Bark
s 1
f 2/1/1 98/2/2 97/3/3
f 4/4/4 99/5/5 98/6/2
f 99/7/5 8/8/6 100/9/7
f 8/10/6 101/11/8 100/12/7
f 10/13/9 102/14/10 101/15/8
f 12/16/11 103/17/12 102/18/10
f 103/19/12 16/20/13 104/21/14
f 104/22/14 18/23/15 105/24/16
f 18/25/15 106/26/17 105/27/16
f 20/28/18 107/29/19 106/30/17
f 107/31/19 24/32/20 108/33/21
f 24/34/20 109/35/22 108/36/21
f 26/37/23 110/38/24 109/39/22
f 110/40/24 30/41/25 111/42/26
f 30/43/25 112/44/27 111/45/26
f 32/46/28 113/47/29 112/48/27
f 34/49/30 114/50/31 113/51/29
f 36/52/32 115/53/33 114/54/31
f 115/55/33 40/56/34 116/57/35
f 40/58/34 117/59/36 116/60/35
f 117/61/36 44/62/37 118/63/38
f 44/64/37 119/65/39 118/66/38
f 46/67/40 120/68/41 119/69/39
f 48/70/42 121/71/43 120/72/41
f 50/73/44 122/74/45 121/75/43
f 52/76/46 123/77/47 122/78/45
f 54/79/48 124/80/49 123/81/47
f 56/82/50 125/83/51 124/84/49
f 58/85/52 126/86/53 125/87/51
f 60/88/54 127/89/55 126/90/53
f 44/91/37 14/92/56 12/93/11
f 127/94/55 64/95/57 128/96/58
f 128/97/58 2/98/1 97/99/3
f 15/100/59 43/101/60 13/102/61
f 63/103/62 65/104/63 1/105/64
f 95/106/55 63/107/62 61/108/65
f 94/109/53 61/110/65 59/111/66
f 93/112/51 59/113/66 57/114/67
f 92/115/49 57/116/67 55/117/68
f 53/118/69 92/119/49 55/120/68
f 51/121/70 91/122/47 53/123/69
f 49/124/71 90/125/45 51/126/70
f 88/127/41 49/128/71 47/129/72
f 45/130/73 88/131/41 47/132/72
f 86/133/38 45/134/73 43/135/60
f 41/136/74 86/137/38 43/138/60
f 84/139/35 41/140/74 39/141/75
f 83/142/76 39/143/75 37/144/77
f 35/145/78 83/146/76 37/147/77
f 81/148/29 35/149/78 33/150/79
f 31/151/80 81/152/29 33/153/79
f 79/154/26 31/155/80 29/156/81
f 78/157/24 29/158/81 27/159/82
f 25/160/83 78/161/24 27/162/82
f 76/163/21 25/164/83 23/165/84
f 21/166/85 76/167/21 23/168/84
f 19/169/86 75/170/19 21/171/85
f 73/172/16 19/173/86 17/174/87
f 15/175/59 73/176/16 17/177/87
f 13/178/61 72/179/14 15/180/59
f 70/181/10 13/182/61 11/183/88
f 9/184/89 70/185/10 11/186/88
f 68/187/7 9/188/89 7/189/90
f 5/190/91 68/191/7 7/192/90
f 3/193/92 67/194/5 5/195/91
f 65/196/63 3/197/92 1/198/64
f 128/199/58 65/200/63 96/201/58
f 127/202/55 96/203/58 95/204/55
f 126/205/53 95/206/55 94/207/53
f 125/208/51 94/209/53 93/210/51
f 92/211/49 125/212/51 93/213/51
f 123/214/47 92/215/49 91/216/47
f 90/217/45 123/218/47 91/219/47
f 121/220/43 90/221/45 89/222/43
f 120/223/41 89/224/43 88/225/41
f 119/226/39 88/227/41 87/228/39
f 118/229/38 87/230/39 86/231/38
f 85/232/36 118/233/38 86/234/38
f 116/235/35 85/236/36 84/237/35
f 115/238/33 84/239/35 83/240/76
f 82/241/93 136/242/94 83/243/76
f 113/244/29 82/245/93 81/246/29
f 80/247/27 113/248/29 81/249/29
f 111/250/26 80/251/27 79/252/26
f 78/253/24 111/254/26 79/255/26
f 77/256/22 110/257/24 78/258/24
f 108/259/21 77/260/22 76/261/21
f 107/262/19 76/263/21 75/264/19
f 74/265/17 107/266/19 75/267/19
f 105/268/16 74/269/17 73/270/16
f 72/271/14 105/272/16 73/273/16
f 71/274/12 104/275/14 72/276/14
f 102/277/10 71/278/12 70/279/10
f 101/280/8 70/281/10 69/282/8
f 68/283/7 101/284/8 69/285/8
f 67/286/5 100/287/7 68/288/7
f 98/289/2 67/290/5 66/291/95
f 65/292/63 132/293/96 131/294/97
f 132/295/96 130/296/98 131/297/97
f 66/298/95 129/299/99 98/300/2
f 65/301/63 130/296/98 66/302/95
f 97/303/3 129/304/99 132/305/96
f 133/306/100 136/307/94 134/308/101
f 114/309/31 135/310/102 133/311/100
f 83/312/76 135/313/102 115/314/33
f 82/315/93 133/316/100 134/317/101
f 2/1/1 4/318/4 98/2/2
f 4/4/4 6/319/103 99/5/5
f 99/7/5 6/320/103 8/8/6
f 8/10/6 10/321/9 101/11/8
f 10/13/9 12/322/11 102/14/10
f 12/16/11 14/323/56 103/17/12
f 103/19/12 14/324/56 16/20/13
f 104/22/14 16/325/13 18/23/15
f 18/25/15 20/326/18 106/26/17
f 20/28/18 22/327/104 107/29/19
f 107/31/19 22/328/104 24/32/20
f 24/34/20 26/329/23 109/35/22
f 26/37/23 28/330/105 110/38/24
f 110/40/24 28/331/105 30/41/25
f 30/43/25 32/332/28 112/44/27
f 32/46/28 34/333/30 113/47/29
f 34/49/30 36/334/32 114/50/31
f 36/52/32 38/335/106 115/53/33
f 115/55/33 38/336/106 40/56/34
f 40/58/34 42/337/107 117/59/36
f 117/61/36 42/338/107 44/62/37
f 44/64/37 46/339/40 119/65/39
f 46/67/40 48/340/42 120/68/41
f 48/70/42 50/341/44 121/71/43
f 50/73/44 52/342/46 122/74/45
f 52/76/46 54/343/48 123/77/47
f 54/79/48 56/344/50 124/80/49
f 56/82/50 58/345/52 125/83/51
f 58/85/52 60/346/54 126/86/53
f 60/88/54 62/347/108 127/89/55
f 6/348/103 4/349/4 2/350/1
f 2/350/1 64/351/57 62/352/108
f 62/352/108 60/353/54 44/91/37
f 58/354/52 56/355/50 44/91/37
f 54/356/48 52/357/46 44/91/37
f 50/358/44 48/359/42 44/91/37
f 44/91/37 42/360/107 40/361/34
f 48/359/42 46/362/40 44/91/37
f 56/355/50 54/356/48 44/91/37
f 2/350/1 62/352/108 6/348/103
f 8/363/6 6/348/103 44/91/37
f 12/93/11 10/364/9 44/91/37
f 16/365/13 14/92/56 44/91/37
f 20/366/18 18/367/15 44/91/37
f 24/368/20 22/369/104 44/91/37
f 28/370/105 26/371/23 44/91/37
f 32/372/28 30/373/25 44/91/37
f 36/374/32 34/375/30 44/91/37
f 40/361/34 38/376/106 44/91/37
f 52/357/46 50/358/44 44/91/37
f 44/91/37 38/376/106 36/374/32
f 34/375/30 32/372/28 44/91/37
f 26/371/23 24/368/20 44/91/37
f 18/367/15 16/365/13 44/91/37
f 10/364/9 8/363/6 44/91/37
f 60/353/54 58/354/52 44/91/37
f 44/91/37 30/373/25 28/370/105
f 22/369/104 20/366/18 44/91/37
f 6/348/103 62/352/108 44/91/37
f 127/94/55 62/377/108 64/95/57
f 128/97/58 64/378/57 2/98/1
f 63/379/62 1/380/64 3/381/92
f 3/381/92 5/382/91 63/379/62
f 7/383/90 9/384/89 43/101/60
f 11/385/88 13/102/61 43/101/60
f 15/100/59 17/386/87 43/101/60
f 19/387/86 21/388/85 43/101/60
f 23/389/84 25/390/83 43/101/60
f 27/391/82 29/392/81 43/101/60
f 31/393/80 33/394/79 43/101/60
f 35/395/78 37/396/77 43/101/60
f 39/397/75 41/398/74 43/101/60
f 43/101/60 45/399/73 47/400/72
f 47/400/72 49/401/71 43/101/60
f 51/402/70 53/403/69 43/101/60
f 55/404/68 57/405/67 43/101/60
f 59/406/66 61/407/65 43/101/60
f 63/379/62 5/382/91 61/407/65
f 9/384/89 11/385/88 43/101/60
f 17/386/87 19/387/86 43/101/60
f 25/390/83 27/391/82 43/101/60
f 33/394/79 35/395/78 43/101/60
f 43/101/60 49/401/71 51/402/70
f 37/396/77 39/397/75 43/101/60
f 21/388/85 23/389/84 43/101/60
f 5/382/91 43/101/60 61/407/65
f 57/405/67 59/406/66 43/101/60
f 43/101/60 53/403/69 55/404/68
f 29/392/81 31/393/80 43/101/60
f 5/382/91 7/383/90 43/101/60
f 63/103/62 96/408/58 65/104/63
f 95/106/55 96/409/58 63/107/62
f 94/109/53 95/410/55 61/110/65
f 93/112/51 94/411/53 59/113/66
f 92/115/49 93/412/51 57/116/67
f 53/118/69 91/413/47 92/119/49
f 51/121/70 90/414/45 91/122/47
f 49/124/71 89/415/43 90/125/45
f 88/127/41 89/416/43 49/128/71
f 45/130/73 87/417/39 88/131/41
f 86/133/38 87/418/39 45/134/73
f 41/136/74 85/419/36 86/137/38
f 84/139/35 85/420/36 41/140/74
f 83/142/76 84/421/35 39/143/75
f 35/145/78 82/422/93 83/146/76
f 81/148/29 82/423/93 35/149/78
f 31/151/80 80/424/27 81/152/29
f 79/154/26 80/425/27 31/155/80
f 78/157/24 79/426/26 29/158/81
f 25/160/83 77/427/22 78/161/24
f 76/163/21 77/428/22 25/164/83
f 21/166/85 75/429/19 76/167/21
f 19/169/86 74/430/17 75/170/19
f 73/172/16 74/431/17 19/173/86
f 15/175/59 72/432/14 73/176/16
f 13/178/61 71/433/12 72/179/14
f 70/181/10 71/434/12 13/182/61
f 9/184/89 69/435/8 70/185/10
f 68/187/7 69/436/8 9/188/89
f 5/190/91 67/437/5 68/191/7
f 3/193/92 66/438/95 67/194/5
f 65/196/63 66/439/95 3/197/92
f 128/199/58 97/440/3 65/200/63
f 127/202/55 128/441/58 96/203/58
f 126/205/53 127/442/55 95/206/55
f 125/208/51 126/443/53 94/209/53
f 92/211/49 124/444/49 125/212/51
f 123/214/47 124/445/49 92/215/49
f 90/217/45 122/446/45 123/218/47
f 121/220/43 122/447/45 90/221/45
f 120/223/41 121/448/43 89/224/43
f 119/226/39 120/449/41 88/227/41
f 118/229/38 119/450/39 87/230/39
f 85/232/36 117/451/36 118/233/38
f 116/235/35 117/452/36 85/236/36
f 115/238/33 116/453/35 84/239/35
f 82/241/93 134/454/101 136/242/94
f 113/244/29 114/455/31 82/245/93
f 80/247/27 112/456/27 113/248/29
f 111/250/26 112/457/27 80/251/27
f 78/253/24 110/458/24 111/254/26
f 77/256/22 109/459/22 110/257/24
f 108/259/21 109/460/22 77/260/22
f 107/262/19 108/461/21 76/263/21
f 74/265/17 106/462/17 107/266/19
f 105/268/16 106/463/17 74/269/17
f 72/271/14 104/464/14 105/272/16
f 71/274/12 103/465/12 104/275/14
f 102/277/10 103/466/12 71/278/12
f 101/280/8 102/467/10 70/281/10
f 68/283/7 100/468/7 101/284/8
f 67/286/5 99/469/5 100/287/7
f 98/289/2 99/470/5 67/290/5
f 65/292/63 97/471/3 132/293/96
f 132/295/96 129/472/99 130/296/98
f 66/298/95 130/473/98 129/299/99
f 65/301/63 131/474/97 130/296/98
f 97/303/3 98/475/2 129/304/99
f 133/306/100 135/476/102 136/307/94
f 114/309/31 115/477/33 135/310/102
f 83/312/76 136/478/94 135/313/102
f 82/315/93 114/479/31 133/316/100
